<?xml version="1.0" encoding="iso-8859-1"?>
<!-- Generator: Adobe Illustrator 16.0.0, SVG Export Plug-In . SVG Version: 6.00 Build 0)  -->
<!DOCTYPE svg PUBLIC "-//W3C//DTD SVG 1.1//EN" "http://www.w3.org/Graphics/SVG/1.1/DTD/svg11.dtd">
<svg version="1.1" id="Capa_1" xmlns="http://www.w3.org/2000/svg" xmlns:xlink="http://www.w3.org/1999/xlink" x="0px" y="0px"
	 width="606.216px" height="606.217px" viewBox="0 0 606.216 606.217" style="enable-background:new 0 0 606.216 606.217;"
	 xml:space="preserve">
<g>
	<g>
		<path d="M246.093,116.504c-11.418-11.419-26.603-17.709-42.753-17.709s-31.334,6.289-42.753,17.708L18.181,258.91
			c-23.575,23.574-23.575,61.932,0,85.506l145.296,145.298c11.42,11.42,26.604,17.708,42.753,17.708s31.333-6.288,42.752-17.708
			c23.575-23.574,23.575-61.933,0.001-85.507L146.44,301.663l99.652-99.652C269.667,178.436,269.667,140.079,246.093,116.504z
			 M215.801,171.718L98.316,289.203c-6.882,6.882-6.882,18.04,0,24.921l120.375,120.375c6.882,6.882,6.882,18.04,0,24.922l0,0
			c-3.441,3.44-7.951,5.161-12.461,5.161s-9.02-1.721-12.461-5.161L48.473,314.124c-6.882-6.882-6.882-18.04,0-24.921
			l142.406-142.406c3.441-3.441,7.951-5.162,12.461-5.162s9.02,1.721,12.461,5.162l0,0
			C222.683,153.678,222.683,164.836,215.801,171.718z"/>
		<path d="M206.23,507.922c-16.284,0-31.592-6.341-43.106-17.854L17.828,344.77C6.332,333.273,0,317.965,0,301.663
			c0-16.302,6.332-31.611,17.828-43.107L160.234,116.15c11.513-11.514,26.822-17.855,43.106-17.855
			c16.284,0,31.593,6.341,43.106,17.855c23.769,23.77,23.769,62.445,0,86.214l-99.299,99.299l102.19,102.19
			c11.496,11.496,17.827,26.805,17.827,43.107c0,16.302-6.332,31.61-17.828,43.106C237.822,501.581,222.514,507.922,206.23,507.922z
			 M203.34,99.295c-16.018,0-31.075,6.237-42.399,17.562L18.535,259.263C7.228,270.57,1,285.628,1,301.663
			c0,16.034,6.228,31.092,17.535,42.399L163.831,489.36c11.325,11.324,26.383,17.562,42.399,17.562s31.074-6.236,42.399-17.562
			c11.308-11.307,17.535-26.365,17.535-42.399c0-16.035-6.227-31.093-17.534-42.4L145.733,301.663l100.006-100.006
			c23.379-23.379,23.379-61.42,0-84.8C234.415,105.532,219.357,99.295,203.34,99.295z M206.23,465.082
			c-4.84,0-9.391-1.885-12.814-5.308L48.12,314.478c-3.423-3.423-5.308-7.974-5.308-12.814c0-4.841,1.885-9.392,5.308-12.814
			l142.406-142.406c3.423-3.423,7.974-5.308,12.814-5.308s9.391,1.885,12.814,5.308c7.065,7.066,7.065,18.563,0,25.629
			L98.67,289.556c-3.234,3.234-5.015,7.534-5.015,12.107s1.781,8.873,5.015,12.107l120.375,120.375
			c3.423,3.423,5.308,7.974,5.308,12.814s-1.885,9.392-5.308,12.814C215.621,463.197,211.07,465.082,206.23,465.082z
			 M203.34,142.135c-4.573,0-8.873,1.781-12.107,5.015L48.827,289.556c-3.234,3.234-5.015,7.534-5.015,12.107
			s1.781,8.873,5.015,12.107l145.296,145.297c3.235,3.233,7.535,5.015,12.107,5.015c4.573,0,8.873-1.781,12.107-5.015
			c3.234-3.234,5.015-7.534,5.015-12.107s-1.781-8.873-5.015-12.107L97.963,314.478c-3.423-3.423-5.308-7.974-5.308-12.814
			c0-4.841,1.885-9.392,5.308-12.814l117.484-117.484c6.676-6.676,6.676-17.539,0-24.215
			C212.213,143.916,207.914,142.135,203.34,142.135z"/>
	</g>
	<g>
		<path d="M445.63,116.504c-11.42-11.42-26.604-17.708-42.753-17.708s-31.333,6.289-42.753,17.708
			c-23.574,23.576-23.574,61.934,0,85.507l99.652,99.652L357.233,404.207c-11.42,11.42-17.709,26.604-17.709,42.753
			c0,16.15,6.289,31.333,17.709,42.754c11.42,11.419,26.604,17.708,42.753,17.708s31.334-6.289,42.753-17.708l145.297-145.297
			c23.574-23.575,23.574-61.933,0.001-85.507L445.63,116.504z M557.744,314.124L412.447,459.421c-3.44,3.44-7.95,5.161-12.461,5.161
			c-4.51,0-9.02-1.721-12.461-5.161l0,0c-6.882-6.882-6.882-18.04,0-24.922L507.9,314.124c6.882-6.882,6.882-18.04,0-24.921
			L390.417,171.718c-6.882-6.882-6.882-18.04,0-24.922l0,0c3.441-3.441,7.951-5.162,12.461-5.162s9.02,1.721,12.461,5.162
			l142.406,142.406C564.625,296.084,564.625,307.242,557.744,314.124z"/>
		<path d="M399.986,507.922c-16.283,0-31.592-6.341-43.106-17.854c-11.515-11.516-17.855-26.824-17.855-43.107
			s6.341-31.592,17.855-43.106l102.19-102.19l-99.299-99.299c-23.77-23.768-23.77-62.444,0-86.214
			c11.514-11.514,26.823-17.854,43.106-17.854c16.284,0,31.593,6.341,43.106,17.855L588.39,258.557
			c23.769,23.769,23.768,62.444-0.001,86.214L443.092,490.067C431.579,501.581,416.27,507.922,399.986,507.922z M402.877,99.295
			c-16.017,0-31.074,6.237-42.399,17.562c-23.379,23.381-23.379,61.422,0,84.8l100.006,100.006L357.586,404.561
			c-11.325,11.325-17.562,26.383-17.562,42.399c0,16.016,6.237,31.074,17.562,42.4c11.326,11.324,26.384,17.562,42.399,17.562
			c16.017,0,31.074-6.236,42.399-17.562l145.297-145.297c23.379-23.38,23.379-61.421,0.001-84.8L445.277,116.857
			C433.952,105.532,418.894,99.295,402.877,99.295z M399.986,465.082c-4.84,0-9.391-1.885-12.814-5.308
			c-7.066-7.065-7.066-18.563,0-25.629l120.375-120.375c3.233-3.234,5.015-7.533,5.015-12.107s-1.781-8.874-5.015-12.107
			L390.063,172.072c-3.423-3.423-5.308-7.974-5.308-12.814s1.885-9.392,5.308-12.814c3.424-3.423,7.975-5.308,12.814-5.308
			s9.391,1.885,12.814,5.308l142.406,142.406c7.065,7.066,7.064,18.563-0.001,25.628L412.8,459.774
			C409.377,463.197,404.827,465.082,399.986,465.082z M402.877,142.135c-4.573,0-8.873,1.781-12.107,5.015
			c-3.233,3.234-5.015,7.534-5.015,12.107s1.781,8.874,5.015,12.107l117.483,117.484c3.423,3.423,5.308,7.974,5.308,12.814
			c0,4.84-1.885,9.391-5.308,12.814L387.878,434.853c-6.676,6.676-6.676,17.539,0,24.215c3.234,3.233,7.534,5.015,12.107,5.015
			c4.574,0,8.874-1.781,12.107-5.015L557.39,313.771c6.676-6.676,6.676-17.538,0.001-24.214L414.985,147.15
			C411.75,143.916,407.451,142.135,402.877,142.135z"/>
	</g>
</g>
<g>
</g>
<g>
</g>
<g>
</g>
<g>
</g>
<g>
</g>
<g>
</g>
<g>
</g>
<g>
</g>
<g>
</g>
<g>
</g>
<g>
</g>
<g>
</g>
<g>
</g>
<g>
</g>
<g>
</g>
</svg>
